<svg width="163" height="104" viewBox="0 0 163 104" fill="none" xmlns="http://www.w3.org/2000/svg">
<rect x="112" y="12" width="11" height="11" fill="#55ACEE"/>
<rect x="127" y="9" width="8" height="8" fill="white"/>
<rect x="117" width="8" height="8" fill="white"/>
<path d="M1.15829 26.4585L11.4293 19.824C11.4376 19.8175 11.4484 19.8225 11.4475 19.83C11.3688 20.6523 9.1626 44.0167 13.5098 58.9297C14.3681 61.8752 15.3909 64.7706 16.5733 67.6023C20.4859 76.9649 26.1795 85.6317 33.4284 92.7661C36.1852 95.5012 39.1925 97.9731 42.4109 100.15C43.7218 101.028 45.1063 101.757 46.455 102.568C47.0096 102.898 47.7375 103.564 48.1453 102.865C48.4541 102.34 48.1052 100.569 48.1037 99.9258C48.1054 98.2897 48.1571 96.6553 48.2589 95.0227C48.3492 93.5356 48.4818 92.0521 48.6569 90.5721C48.8416 89.0167 49.0682 87.47 49.3367 85.9323C49.3677 85.7591 49.3934 85.6009 49.4169 85.46C49.5698 84.5819 49.6805 84.3386 50.7399 84.643C50.7474 84.643 50.7582 84.6488 50.7657 84.6497C62.672 88.0608 74.6056 84.2482 74.4731 82.4988C74.4704 82.4309 74.4521 82.3645 74.4197 82.3047C74.1727 81.7914 71.8458 81.6518 71.2451 81.4933C70.0839 81.1886 68.9286 80.8319 67.7934 80.4326C56.9597 76.6126 48.3847 68.6995 41.0337 60.1427C31.577 49.1427 22.4886 21.6389 22.1273 20.5382C22.124 20.534 22.1327 20.5237 22.1431 20.5324C22.631 20.9187 29.1697 26.1103 34.5844 29.3462C34.7348 29.4355 34.9118 29.4694 35.0847 29.4419C35.2576 29.4144 35.4153 29.3273 35.5304 29.1958C35.6455 29.0643 35.7107 28.8966 35.7146 28.7221C35.7185 28.5476 35.6608 28.3773 35.5517 28.2407L15.3612 3.00735C14.9288 2.46548 14.4473 1.8888 13.6066 2.01847C13.478 2.03779 13.3516 2.07013 13.2296 2.115C12.6646 2.3274 12.1999 2.74318 11.9272 3.28035C8.59264 9.53112 2.72969 20.5214 0.0856018 25.4811C0.00875092 25.6276 -0.0173187 25.7954 0.0114365 25.9583C0.0401993 26.1212 0.122185 26.27 0.244614 26.3816C0.36705 26.4931 0.523041 26.5612 0.688309 26.5751C0.853569 26.589 1.01882 26.548 1.15829 26.4585Z" fill="white"/>
<path d="M6.11769 32.7092L14.0062 27.0544C14.0125 27.049 14.0213 27.0525 14.0209 27.0584C13.9914 27.7111 13.1783 46.2536 17.2289 57.8565C18.0287 60.1483 18.9571 62.3938 20.0096 64.5826C23.4923 71.8192 28.3611 78.4345 34.4031 83.7766C36.7018 85.8254 39.1888 87.6564 41.8317 89.2455C42.9078 89.8864 44.0363 90.406 45.1398 90.9924C45.5934 91.2306 46.198 91.7269 46.4937 91.1586C46.7179 90.7311 46.3697 89.347 46.3427 88.8388C46.2783 87.5465 46.2537 86.2536 46.2689 84.96C46.2809 83.7818 46.3266 82.6048 46.4061 81.4288C46.4903 80.1928 46.6082 78.9622 46.7596 77.7367C46.7772 77.5987 46.7913 77.4727 46.8043 77.3605C46.8904 76.6608 46.9685 76.4641 47.8219 76.6618C47.8278 76.6615 47.8366 76.6657 47.8426 76.666C57.4331 78.8794 66.755 75.3863 66.5795 74.0099C66.5746 73.9564 66.5574 73.9047 66.5293 73.8588C66.3126 73.4633 64.4595 73.447 63.9762 73.3461C63.042 73.1524 62.1103 72.9173 61.193 72.6477C52.4377 70.0681 45.3115 64.1646 39.1312 57.7031C31.1808 49.3971 22.86 28.0413 22.529 27.1865C22.5262 27.1833 22.5327 27.1748 22.5412 27.1813C22.9442 27.4667 28.3443 31.3031 32.7735 33.6402C32.8965 33.7046 33.0384 33.7242 33.1746 33.6955C33.3107 33.6668 33.4324 33.5917 33.5185 33.4832C33.6046 33.3746 33.6497 33.2396 33.6457 33.1016C33.6418 32.9636 33.5892 32.8314 33.4971 32.728L16.4526 13.6137C16.0874 13.2032 15.682 12.7671 15.0197 12.9035C14.9184 12.924 14.8194 12.9546 14.7242 12.995C14.2842 13.1855 13.932 13.5327 13.737 13.968C11.3405 19.0395 7.12686 27.9565 5.22673 31.9805C5.17159 32.0994 5.15763 32.2329 5.18701 32.3604C5.21639 32.4879 5.28746 32.6021 5.38915 32.6853C5.49084 32.7685 5.61743 32.8159 5.74921 32.8203C5.88098 32.8246 6.01054 32.7855 6.11769 32.7092Z" fill="#55ACEE"/>
<path d="M44.0604 28.2414H47.7984V20.0526H51.0454V17.1541H40.8134V20.0526H44.0604V28.2414ZM66.1996 17.1541L64.1564 23.5372L62.224 17.1541H58.7869L56.7437 23.458L54.8113 17.1541H50.9625L54.5104 28.2414H58.5177L60.4025 22.3176L62.1923 28.2414H66.1996L69.7475 17.1541H66.1996ZM70.5776 28.2414H74.3156V17.1541H70.5776V28.2414ZM78.5226 28.2414H82.2606V20.0526H85.5076V17.1541H75.2756V20.0526H78.5226V28.2414ZM89.0407 28.2414H92.7787V20.0526H96.0257V17.1541H85.7937V20.0526H89.0407V28.2414ZM100.671 25.422V23.9649H105.36V21.2722H100.671V19.9734H106.009V17.1541H96.9966V28.2414H106.215V25.422H100.671ZM114.29 28.2414H118.282L115.954 24.8202C117.284 24.1391 118.044 22.9353 118.044 21.3356C118.044 18.7697 116.08 17.1541 112.992 17.1541H107.654V28.2414H111.392V25.4537H112.406L114.29 28.2414ZM114.275 21.3356C114.275 22.1434 113.784 22.6344 112.754 22.6344H111.392V20.0368H112.754C113.784 20.0368 114.275 20.5278 114.275 21.3356Z" fill="white"/>
<path d="M52.8126 48.1672C56.2497 48.1672 57.9761 46.4566 57.9761 44.4292C57.9761 40.3427 51.8464 41.4515 51.8464 40.121C51.8464 39.7409 52.1949 39.4241 53.2878 39.4241C54.254 39.4241 55.2835 39.6933 56.3764 40.2477L57.501 37.5392C56.3447 36.8898 54.8083 36.573 53.3195 36.573C49.8824 36.573 48.156 38.252 48.156 40.3111C48.156 44.445 54.2857 43.3205 54.2857 44.7143C54.2857 45.0944 53.9055 45.3162 52.8443 45.3162C51.6247 45.3162 50.2309 44.9202 49.1855 44.3025L47.9817 47.0268C49.0905 47.7079 50.9595 48.1672 52.8126 48.1672ZM62.7631 45.0944V43.6373H67.4515V40.9446H62.7631V39.6458H68.1009V36.8265H59.0885V47.9138H68.3068V45.0944H62.7631ZM77.0317 36.8265V41.8633L72.8185 36.8265H69.7458V47.9138H73.3888V42.877L77.6019 47.9138H80.6747V36.8265H77.0317ZM84.8833 47.9138H88.6213V39.725H91.8683V36.8265H81.6363V39.725H84.8833V47.9138ZM92.8392 47.9138H96.5772V36.8265H92.8392V47.9138ZM111.681 47.9138L111.65 36.8265H108.577L105.061 42.7344L101.449 36.8265H98.3767V47.9138H101.782V43.0354L104.19 46.9159H105.837L108.244 42.8611L108.276 47.9138H111.681ZM117.163 45.0944V43.6373H121.852V40.9446H117.163V39.6458H122.501V36.8265H113.489V47.9138H122.707V45.0944H117.163ZM131.432 36.8265V41.8633L127.219 36.8265H124.146V47.9138H127.789V42.877L132.002 47.9138H135.075V36.8265H131.432ZM139.284 47.9138H143.022V39.725H146.269V36.8265H136.037V39.725H139.284V47.9138Z" fill="white"/>
<path d="M72.4353 66.181H76.3L71.4532 55.0937H67.7786L62.9318 66.181H66.7332L67.4776 64.2487H71.6908L72.4353 66.181ZM68.5072 61.556L69.5842 58.7684L70.6613 61.556H68.5072ZM84.1825 55.0937V60.1305L79.9693 55.0937H76.8965V66.181H80.5395V61.1442L84.7527 66.181H87.8255V55.0937H84.1825ZM97.9262 66.181H101.791L96.9442 55.0937H93.2695L88.4228 66.181H92.2241L92.9686 64.2487H97.1818L97.9262 66.181ZM93.9981 61.556L95.0752 58.7684L96.1522 61.556H93.9981ZM102.387 66.181H111.131V63.2825H106.125V55.0937H102.387V66.181ZM121.82 55.0937H118.209L115.928 58.9268L113.663 55.0937H109.719L113.9 62.1104V66.181H117.638V62.1579L121.82 55.0937ZM126.196 66.4345C129.634 66.4345 131.36 64.7238 131.36 62.6964C131.36 58.61 125.23 59.7187 125.23 58.3882C125.23 58.0081 125.579 57.6913 126.672 57.6913C127.638 57.6913 128.667 57.9606 129.76 58.5149L130.885 55.8065C129.729 55.1571 128.192 54.8403 126.703 54.8403C123.266 54.8403 121.54 56.5192 121.54 58.5783C121.54 62.7123 127.67 61.5877 127.67 62.9815C127.67 63.3617 127.289 63.5834 126.228 63.5834C125.009 63.5834 123.615 63.1875 122.569 62.5697L121.366 65.294C122.474 65.9751 124.343 66.4345 126.196 66.4345ZM132.472 66.181H136.21V55.0937H132.472V66.181ZM142.144 66.4345C145.581 66.4345 147.307 64.7238 147.307 62.6964C147.307 58.61 141.178 59.7187 141.178 58.3882C141.178 58.0081 141.526 57.6913 142.619 57.6913C143.585 57.6913 144.615 57.9606 145.708 58.5149L146.832 55.8065C145.676 55.1571 144.139 54.8403 142.651 54.8403C139.214 54.8403 137.487 56.5192 137.487 58.5783C137.487 62.7123 143.617 61.5877 143.617 62.9815C143.617 63.3617 143.237 63.5834 142.175 63.5834C140.956 63.5834 139.562 63.1875 138.517 62.5697L137.313 65.294C138.422 65.9751 140.291 66.4345 142.144 66.4345Z" fill="white"/>
</svg>
